<svg xmlns="http://www.w3.org/2000/svg" xmlns:xlink="http://www.w3.org/1999/xlink" width="500" zoomAndPan="magnify" viewBox="0 0 375 374.999991" height="500" preserveAspectRatio="xMidYMid meet" version="1.0"><defs><g/></defs><g fill="#fad02c" fill-opacity="1"><g transform="translate(39.93122, 355.456398)"><g><path d="M 38.386719 -2.992188 C 56.332031 2.492188 78.769531 0.996094 90.730469 -13.957031 C 103.695312 -29.910156 99.707031 -69.296875 114.164062 -81.261719 C 122.140625 -87.242188 191.933594 -81.757812 194.425781 -79.765625 C 207.886719 -68.296875 210.378906 -36.394531 220.351562 -21.933594 C 234.308594 -1.496094 252.753906 -0.5 272.195312 -15.953125 C 291.640625 -31.90625 289.644531 -48.355469 281.667969 -70.292969 L 223.339844 -234.308594 C 209.382812 -274.191406 199.910156 -335.511719 147.566406 -334.511719 C 101.203125 -333.019531 78.269531 -305.101562 64.808594 -264.21875 C 48.855469 -215.863281 33.898438 -167.007812 21.933594 -117.652344 C 12.960938 -80.761719 -12.960938 -17.945312 38.386719 -2.992188 Z M 137.09375 -152.050781 C 141.582031 -167.007812 146.566406 -181.964844 151.054688 -196.917969 C 155.042969 -183.457031 159.53125 -170.496094 164.015625 -157.035156 C 155.042969 -155.542969 146.070312 -153.546875 137.09375 -152.050781 Z M 137.09375 -152.050781 "/></g></g></g></svg>